ISO-10303-21;
HEADER;
/* Generated by software containing ST-Developer
 * from STEP Tools, Inc. (www.steptools.com) 
 */

FILE_DESCRIPTION(
/* description */ (''),
/* implementation_level */ '2;1');

FILE_NAME(
/* name */ '3D print hub v1.step',
/* time_stamp */ '2023-10-09T13:05:37+02:00',
/* author */ (''),
/* organization */ (''),
/* preprocessor_version */ 'ST-DEVELOPER v20',
/* originating_system */ 'Autodesk Translation Framework v12.9.0.99',
/* authorisation */ '');

FILE_SCHEMA (('AUTOMOTIVE_DESIGN { 1 0 10303 214 3 1 1 }'));
ENDSEC;

DATA;
#10=MECHANICAL_DESIGN_GEOMETRIC_PRESENTATION_REPRESENTATION('',(#13),#400);
#11=SHAPE_REPRESENTATION_RELATIONSHIP('SRR','None',#407,#12);
#12=ADVANCED_BREP_SHAPE_REPRESENTATION('',(#14),#399);
#13=STYLED_ITEM('',(#417),#14);
#14=MANIFOLD_SOLID_BREP('Body1',#185);
#15=CONICAL_SURFACE('',#215,27.5,0.785398163397448);
#16=CONICAL_SURFACE('',#216,27.5,0.785398163397448);
#17=LINE('',#360,#29);
#18=LINE('',#366,#30);
#19=LINE('',#370,#31);
#20=LINE('',#372,#32);
#21=LINE('',#374,#33);
#22=LINE('',#376,#34);
#23=LINE('',#377,#35);
#24=LINE('',#380,#36);
#25=LINE('',#382,#37);
#26=LINE('',#384,#38);
#27=LINE('',#386,#39);
#28=LINE('',#387,#40);
#29=VECTOR('',#237,10.);
#30=VECTOR('',#244,10.);
#31=VECTOR('',#249,10.);
#32=VECTOR('',#250,10.);
#33=VECTOR('',#251,10.);
#34=VECTOR('',#252,10.);
#35=VECTOR('',#253,10.);
#36=VECTOR('',#256,10.);
#37=VECTOR('',#257,10.);
#38=VECTOR('',#258,10.);
#39=VECTOR('',#259,10.);
#40=VECTOR('',#260,10.);
#41=PLANE('',#203);
#42=PLANE('',#210);
#43=PLANE('',#211);
#44=PLANE('',#212);
#45=PLANE('',#218);
#46=FACE_OUTER_BOUND('',#58,.T.);
#47=FACE_OUTER_BOUND('',#59,.T.);
#48=FACE_OUTER_BOUND('',#60,.T.);
#49=FACE_OUTER_BOUND('',#61,.T.);
#50=FACE_OUTER_BOUND('',#62,.T.);
#51=FACE_OUTER_BOUND('',#63,.T.);
#52=FACE_OUTER_BOUND('',#64,.T.);
#53=FACE_OUTER_BOUND('',#65,.T.);
#54=FACE_OUTER_BOUND('',#66,.T.);
#55=FACE_OUTER_BOUND('',#67,.T.);
#56=FACE_OUTER_BOUND('',#68,.T.);
#57=FACE_OUTER_BOUND('',#69,.T.);
#58=EDGE_LOOP('',(#120,#121));
#59=EDGE_LOOP('',(#122,#123));
#60=EDGE_LOOP('',(#124,#125));
#61=EDGE_LOOP('',(#126,#127,#128,#129));
#62=EDGE_LOOP('',(#130,#131,#132,#133));
#63=EDGE_LOOP('',(#134,#135,#136,#137,#138,#139));
#64=EDGE_LOOP('',(#140,#141,#142,#143,#144,#145));
#65=EDGE_LOOP('',(#146,#147,#148,#149));
#66=EDGE_LOOP('',(#150,#151,#152,#153,#154));
#67=EDGE_LOOP('',(#155,#156,#157,#158,#159));
#68=EDGE_LOOP('',(#160,#161,#162,#163));
#69=EDGE_LOOP('',(#164,#165,#166,#167));
#70=CIRCLE('',#200,24.);
#71=CIRCLE('',#202,24.);
#72=CIRCLE('',#205,30.);
#73=CIRCLE('',#206,30.);
#74=CIRCLE('',#208,30.);
#75=CIRCLE('',#209,30.);
#76=CIRCLE('',#213,25.);
#77=CIRCLE('',#214,6.75);
#78=CIRCLE('',#217,25.);
#79=CIRCLE('',#219,6.75);
#80=B_SPLINE_CURVE_WITH_KNOTS('',3,(#283,#284,#285,#286,#287,#288,#289,
#290,#291,#292,#293,#294,#295,#296,#297,#298,#299,#300,#301,#302,#303,#304,
#305,#306,#307,#308,#309,#310,#311,#312,#313,#314,#315,#316,#317),
 .UNSPECIFIED.,.F.,.F.,(4,2,2,2,2,2,2,2,3,2,2,2,2,2,2,2,4),(11.6285367666117,
12.1054053603871,12.5822739541624,13.0591425479378,13.5360111417131,14.0281872784888,
14.5203634152644,15.01253955204,15.5047156888156,15.9968918255913,16.4890679623669,
16.9812440991425,17.4734202359182,17.9502888296935,18.4271574234689,18.9040260172442,
19.3808946110196),.UNSPECIFIED.);
#81=B_SPLINE_CURVE_WITH_KNOTS('',3,(#320,#321,#322,#323,#324,#325,#326,
#327,#328,#329,#330,#331,#332,#333,#334,#335,#336,#337,#338,#339,#340,#341,
#342,#343,#344,#345,#346,#347,#348,#349,#350,#351,#352,#353),
 .UNSPECIFIED.,.F.,.F.,(4,2,2,2,2,2,2,2,2,2,2,2,2,2,2,2,4),(3.87617892220391,
4.35304751597926,4.82991610975461,5.30678470352996,5.78365329730531,6.27582943408094,
6.76800557085657,7.26018170763219,7.75235784440782,8.24453398118345,8.73671011795908,
9.22888625473471,9.72106239151033,10.1979309852857,10.674799579061,11.1516681728364,
11.6285367666117),.UNSPECIFIED.);
#82=VERTEX_POINT('',#281);
#83=VERTEX_POINT('',#282);
#84=VERTEX_POINT('',#357);
#85=VERTEX_POINT('',#359);
#86=VERTEX_POINT('',#363);
#87=VERTEX_POINT('',#365);
#88=VERTEX_POINT('',#369);
#89=VERTEX_POINT('',#371);
#90=VERTEX_POINT('',#373);
#91=VERTEX_POINT('',#375);
#92=VERTEX_POINT('',#379);
#93=VERTEX_POINT('',#381);
#94=VERTEX_POINT('',#383);
#95=VERTEX_POINT('',#385);
#96=EDGE_CURVE('',#82,#83,#80,.T.);
#97=EDGE_CURVE('',#83,#82,#70,.T.);
#98=EDGE_CURVE('',#83,#82,#81,.T.);
#99=EDGE_CURVE('',#82,#83,#71,.T.);
#100=EDGE_CURVE('',#84,#83,#72,.T.);
#101=EDGE_CURVE('',#84,#85,#17,.T.);
#102=EDGE_CURVE('',#82,#85,#73,.T.);
#103=EDGE_CURVE('',#86,#82,#74,.T.);
#104=EDGE_CURVE('',#86,#87,#18,.T.);
#105=EDGE_CURVE('',#83,#87,#75,.T.);
#106=EDGE_CURVE('',#87,#88,#19,.T.);
#107=EDGE_CURVE('',#89,#86,#20,.T.);
#108=EDGE_CURVE('',#90,#89,#21,.T.);
#109=EDGE_CURVE('',#91,#90,#22,.T.);
#110=EDGE_CURVE('',#88,#91,#23,.T.);
#111=EDGE_CURVE('',#92,#84,#24,.T.);
#112=EDGE_CURVE('',#93,#92,#25,.T.);
#113=EDGE_CURVE('',#94,#93,#26,.T.);
#114=EDGE_CURVE('',#95,#94,#27,.T.);
#115=EDGE_CURVE('',#85,#95,#28,.T.);
#116=EDGE_CURVE('',#95,#89,#76,.T.);
#117=EDGE_CURVE('',#94,#90,#77,.T.);
#118=EDGE_CURVE('',#88,#92,#78,.T.);
#119=EDGE_CURVE('',#93,#91,#79,.T.);
#120=ORIENTED_EDGE('',*,*,#96,.F.);
#121=ORIENTED_EDGE('',*,*,#97,.F.);
#122=ORIENTED_EDGE('',*,*,#98,.F.);
#123=ORIENTED_EDGE('',*,*,#99,.F.);
#124=ORIENTED_EDGE('',*,*,#99,.T.);
#125=ORIENTED_EDGE('',*,*,#97,.T.);
#126=ORIENTED_EDGE('',*,*,#96,.T.);
#127=ORIENTED_EDGE('',*,*,#100,.F.);
#128=ORIENTED_EDGE('',*,*,#101,.T.);
#129=ORIENTED_EDGE('',*,*,#102,.F.);
#130=ORIENTED_EDGE('',*,*,#98,.T.);
#131=ORIENTED_EDGE('',*,*,#103,.F.);
#132=ORIENTED_EDGE('',*,*,#104,.T.);
#133=ORIENTED_EDGE('',*,*,#105,.F.);
#134=ORIENTED_EDGE('',*,*,#106,.F.);
#135=ORIENTED_EDGE('',*,*,#104,.F.);
#136=ORIENTED_EDGE('',*,*,#107,.F.);
#137=ORIENTED_EDGE('',*,*,#108,.F.);
#138=ORIENTED_EDGE('',*,*,#109,.F.);
#139=ORIENTED_EDGE('',*,*,#110,.F.);
#140=ORIENTED_EDGE('',*,*,#111,.F.);
#141=ORIENTED_EDGE('',*,*,#112,.F.);
#142=ORIENTED_EDGE('',*,*,#113,.F.);
#143=ORIENTED_EDGE('',*,*,#114,.F.);
#144=ORIENTED_EDGE('',*,*,#115,.F.);
#145=ORIENTED_EDGE('',*,*,#101,.F.);
#146=ORIENTED_EDGE('',*,*,#108,.T.);
#147=ORIENTED_EDGE('',*,*,#116,.F.);
#148=ORIENTED_EDGE('',*,*,#114,.T.);
#149=ORIENTED_EDGE('',*,*,#117,.T.);
#150=ORIENTED_EDGE('',*,*,#107,.T.);
#151=ORIENTED_EDGE('',*,*,#103,.T.);
#152=ORIENTED_EDGE('',*,*,#102,.T.);
#153=ORIENTED_EDGE('',*,*,#115,.T.);
#154=ORIENTED_EDGE('',*,*,#116,.T.);
#155=ORIENTED_EDGE('',*,*,#106,.T.);
#156=ORIENTED_EDGE('',*,*,#118,.T.);
#157=ORIENTED_EDGE('',*,*,#111,.T.);
#158=ORIENTED_EDGE('',*,*,#100,.T.);
#159=ORIENTED_EDGE('',*,*,#105,.T.);
#160=ORIENTED_EDGE('',*,*,#110,.T.);
#161=ORIENTED_EDGE('',*,*,#119,.F.);
#162=ORIENTED_EDGE('',*,*,#112,.T.);
#163=ORIENTED_EDGE('',*,*,#118,.F.);
#164=ORIENTED_EDGE('',*,*,#109,.T.);
#165=ORIENTED_EDGE('',*,*,#117,.F.);
#166=ORIENTED_EDGE('',*,*,#113,.T.);
#167=ORIENTED_EDGE('',*,*,#119,.T.);
#168=CYLINDRICAL_SURFACE('',#199,24.);
#169=CYLINDRICAL_SURFACE('',#201,24.);
#170=CYLINDRICAL_SURFACE('',#204,30.);
#171=CYLINDRICAL_SURFACE('',#207,30.);
#172=CYLINDRICAL_SURFACE('',#220,6.75);
#173=ADVANCED_FACE('',(#46),#168,.T.);
#174=ADVANCED_FACE('',(#47),#169,.T.);
#175=ADVANCED_FACE('',(#48),#41,.T.);
#176=ADVANCED_FACE('',(#49),#170,.T.);
#177=ADVANCED_FACE('',(#50),#171,.T.);
#178=ADVANCED_FACE('',(#51),#42,.F.);
#179=ADVANCED_FACE('',(#52),#43,.F.);
#180=ADVANCED_FACE('',(#53),#44,.T.);
#181=ADVANCED_FACE('',(#54),#15,.T.);
#182=ADVANCED_FACE('',(#55),#16,.T.);
#183=ADVANCED_FACE('',(#56),#45,.F.);
#184=ADVANCED_FACE('',(#57),#172,.F.);
#185=CLOSED_SHELL('',(#173,#174,#175,#176,#177,#178,#179,#180,#181,#182,
#183,#184));
#186=DERIVED_UNIT_ELEMENT(#188,1.);
#187=DERIVED_UNIT_ELEMENT(#402,-3.);
#188=(
MASS_UNIT()
NAMED_UNIT(*)
SI_UNIT(.KILO.,.GRAM.)
);
#189=DERIVED_UNIT((#186,#187));
#190=MEASURE_REPRESENTATION_ITEM('density measure',
POSITIVE_RATIO_MEASURE(7850.),#189);
#191=PROPERTY_DEFINITION_REPRESENTATION(#196,#193);
#192=PROPERTY_DEFINITION_REPRESENTATION(#197,#194);
#193=REPRESENTATION('material name',(#195),#399);
#194=REPRESENTATION('density',(#190),#399);
#195=DESCRIPTIVE_REPRESENTATION_ITEM('Steel','Steel');
#196=PROPERTY_DEFINITION('material property','material name',#409);
#197=PROPERTY_DEFINITION('material property','density of part',#409);
#198=AXIS2_PLACEMENT_3D('',#279,#221,#222);
#199=AXIS2_PLACEMENT_3D('',#280,#223,#224);
#200=AXIS2_PLACEMENT_3D('',#318,#225,#226);
#201=AXIS2_PLACEMENT_3D('',#319,#227,#228);
#202=AXIS2_PLACEMENT_3D('',#354,#229,#230);
#203=AXIS2_PLACEMENT_3D('',#355,#231,#232);
#204=AXIS2_PLACEMENT_3D('',#356,#233,#234);
#205=AXIS2_PLACEMENT_3D('',#358,#235,#236);
#206=AXIS2_PLACEMENT_3D('',#361,#238,#239);
#207=AXIS2_PLACEMENT_3D('',#362,#240,#241);
#208=AXIS2_PLACEMENT_3D('',#364,#242,#243);
#209=AXIS2_PLACEMENT_3D('',#367,#245,#246);
#210=AXIS2_PLACEMENT_3D('',#368,#247,#248);
#211=AXIS2_PLACEMENT_3D('',#378,#254,#255);
#212=AXIS2_PLACEMENT_3D('',#388,#261,#262);
#213=AXIS2_PLACEMENT_3D('',#389,#263,#264);
#214=AXIS2_PLACEMENT_3D('',#390,#265,#266);
#215=AXIS2_PLACEMENT_3D('',#391,#267,#268);
#216=AXIS2_PLACEMENT_3D('',#392,#269,#270);
#217=AXIS2_PLACEMENT_3D('',#393,#271,#272);
#218=AXIS2_PLACEMENT_3D('',#394,#273,#274);
#219=AXIS2_PLACEMENT_3D('',#395,#275,#276);
#220=AXIS2_PLACEMENT_3D('',#396,#277,#278);
#221=DIRECTION('axis',(0.,0.,1.));
#222=DIRECTION('refdir',(1.,0.,0.));
#223=DIRECTION('center_axis',(0.,1.,0.));
#224=DIRECTION('ref_axis',(-1.,0.,-1.22464679914735E-16));
#225=DIRECTION('center_axis',(0.,1.,0.));
#226=DIRECTION('ref_axis',(1.,0.,0.));
#227=DIRECTION('center_axis',(0.,1.,0.));
#228=DIRECTION('ref_axis',(1.,0.,0.));
#229=DIRECTION('center_axis',(0.,1.,0.));
#230=DIRECTION('ref_axis',(1.,0.,0.));
#231=DIRECTION('center_axis',(0.,1.,0.));
#232=DIRECTION('ref_axis',(1.,0.,0.));
#233=DIRECTION('center_axis',(0.,0.,1.));
#234=DIRECTION('ref_axis',(1.,0.,0.));
#235=DIRECTION('center_axis',(0.,0.,-1.));
#236=DIRECTION('ref_axis',(1.,0.,0.));
#237=DIRECTION('',(0.,0.,1.));
#238=DIRECTION('center_axis',(0.,0.,1.));
#239=DIRECTION('ref_axis',(1.,0.,0.));
#240=DIRECTION('center_axis',(0.,0.,1.));
#241=DIRECTION('ref_axis',(1.,0.,0.));
#242=DIRECTION('center_axis',(0.,0.,1.));
#243=DIRECTION('ref_axis',(1.,0.,0.));
#244=DIRECTION('',(0.,0.,-1.));
#245=DIRECTION('center_axis',(0.,0.,-1.));
#246=DIRECTION('ref_axis',(1.,0.,0.));
#247=DIRECTION('center_axis',(0.,1.,0.));
#248=DIRECTION('ref_axis',(0.,0.,1.));
#249=DIRECTION('',(-0.707106781186547,0.,-0.707106781186547));
#250=DIRECTION('',(0.707106781186547,0.,-0.707106781186547));
#251=DIRECTION('',(1.,0.,0.));
#252=DIRECTION('',(0.,0.,1.));
#253=DIRECTION('',(-1.,0.,0.));
#254=DIRECTION('center_axis',(0.,1.,0.));
#255=DIRECTION('ref_axis',(0.,0.,1.));
#256=DIRECTION('',(-0.707106781186547,0.,0.707106781186547));
#257=DIRECTION('',(-1.,0.,0.));
#258=DIRECTION('',(0.,0.,-1.));
#259=DIRECTION('',(1.,0.,0.));
#260=DIRECTION('',(0.707106781186547,0.,0.707106781186547));
#261=DIRECTION('center_axis',(0.,0.,1.));
#262=DIRECTION('ref_axis',(1.,0.,0.));
#263=DIRECTION('center_axis',(0.,0.,-1.));
#264=DIRECTION('ref_axis',(1.,0.,0.));
#265=DIRECTION('center_axis',(0.,0.,-1.));
#266=DIRECTION('ref_axis',(1.,0.,0.));
#267=DIRECTION('center_axis',(0.,0.,-1.));
#268=DIRECTION('ref_axis',(1.,0.,0.));
#269=DIRECTION('center_axis',(0.,0.,1.));
#270=DIRECTION('ref_axis',(1.,0.,0.));
#271=DIRECTION('center_axis',(0.,0.,1.));
#272=DIRECTION('ref_axis',(1.,0.,0.));
#273=DIRECTION('center_axis',(0.,0.,1.));
#274=DIRECTION('ref_axis',(1.,0.,0.));
#275=DIRECTION('center_axis',(0.,0.,-1.));
#276=DIRECTION('ref_axis',(1.,0.,0.));
#277=DIRECTION('center_axis',(0.,0.,1.));
#278=DIRECTION('ref_axis',(1.,0.,0.));
#279=CARTESIAN_POINT('',(0.,0.,0.));
#280=CARTESIAN_POINT('Origin',(0.,6.75,29.));
#281=CARTESIAN_POINT('',(0.,30.,53.));
#282=CARTESIAN_POINT('',(0.,30.,5.));
#283=CARTESIAN_POINT('Ctrl Pts',(8.32667268468867E-16,30.,53.));
#284=CARTESIAN_POINT('Ctrl Pts',(-1.58956197925117,30.,53.));
#285=CARTESIAN_POINT('Ctrl Pts',(-3.20939624496865,29.871159010127,52.8395655219682));
#286=CARTESIAN_POINT('Ctrl Pts',(-6.38444823965614,29.3568592582976,52.1918936091798));
#287=CARTESIAN_POINT('Ctrl Pts',(-7.93976866910777,28.9716710207552,51.7049448861887));
#288=CARTESIAN_POINT('Ctrl Pts',(-10.8803392681179,28.0002829323192,50.4516348866068));
#289=CARTESIAN_POINT('Ctrl Pts',(-12.2690138095552,27.4134213367799,49.6841926917287));
#290=CARTESIAN_POINT('Ctrl Pts',(-14.8083690995623,26.1292283435734,47.9493200820974));
#291=CARTESIAN_POINT('Ctrl Pts',(-15.9592690948785,25.432375476729,46.9818564020758));
#292=CARTESIAN_POINT('Ctrl Pts',(-18.0143190580159,24.0226228324281,44.9268064389384));
#293=CARTESIAN_POINT('Ctrl Pts',(-18.9897753331483,23.2533012684665,43.7564233816491));
#294=CARTESIAN_POINT('Ctrl Pts',(-20.7173818352776,21.7282690643034,41.2128493115834));
#295=CARTESIAN_POINT('Ctrl Pts',(-21.4702242997991,20.9727765979933,39.8399977236929));
#296=CARTESIAN_POINT('Ctrl Pts',(-22.7017838145872,19.633056716232,36.9438703322381));
#297=CARTESIAN_POINT('Ctrl Pts',(-23.1816831088682,19.0494750379386,35.4185069783913));
#298=CARTESIAN_POINT('Ctrl Pts',(-23.8308927387716,18.2307839763161,32.2674473974001));
#299=CARTESIAN_POINT('Ctrl Pts',(-24.,18.,30.6405871225854));
#300=CARTESIAN_POINT('Ctrl Pts',(-24.,18.,29.));
#301=CARTESIAN_POINT('Ctrl Pts',(-24.,18.,27.3594128774146));
#302=CARTESIAN_POINT('Ctrl Pts',(-23.8308927387716,18.2307839763161,25.7325526025999));
#303=CARTESIAN_POINT('Ctrl Pts',(-23.1816831088682,19.0494750379386,22.5814930216087));
#304=CARTESIAN_POINT('Ctrl Pts',(-22.7017838145872,19.633056716232,21.0561296677619));
#305=CARTESIAN_POINT('Ctrl Pts',(-21.4702242997991,20.9727765979933,18.1600022763071));
#306=CARTESIAN_POINT('Ctrl Pts',(-20.7173818352776,21.7282690643034,16.7871506884166));
#307=CARTESIAN_POINT('Ctrl Pts',(-18.9897753331483,23.2533012684665,14.243576618351));
#308=CARTESIAN_POINT('Ctrl Pts',(-18.0143190580159,24.0226228324281,13.0731935610616));
#309=CARTESIAN_POINT('Ctrl Pts',(-15.9592690948785,25.432375476729,11.0181435979242));
#310=CARTESIAN_POINT('Ctrl Pts',(-14.8083690995623,26.1292283435734,10.0506799179026));
#311=CARTESIAN_POINT('Ctrl Pts',(-12.2690138095552,27.4134213367799,8.31580730827134));
#312=CARTESIAN_POINT('Ctrl Pts',(-10.8803392681179,28.0002829323192,7.54836511339324));
#313=CARTESIAN_POINT('Ctrl Pts',(-7.93976866910778,28.9716710207552,6.29505511381133));
#314=CARTESIAN_POINT('Ctrl Pts',(-6.38444823965614,29.3568592582976,5.80810639082025));
#315=CARTESIAN_POINT('Ctrl Pts',(-3.20939624496865,29.871159010127,5.16043447803185));
#316=CARTESIAN_POINT('Ctrl Pts',(-1.58956197925116,30.,5.));
#317=CARTESIAN_POINT('Ctrl Pts',(1.94289029309402E-15,30.,5.));
#318=CARTESIAN_POINT('Origin',(0.,30.,29.));
#319=CARTESIAN_POINT('Origin',(0.,6.75,29.));
#320=CARTESIAN_POINT('Ctrl Pts',(8.32667268468867E-16,30.,5.));
#321=CARTESIAN_POINT('Ctrl Pts',(1.58956197925117,30.,5.));
#322=CARTESIAN_POINT('Ctrl Pts',(3.20939624496865,29.871159010127,5.16043447803185));
#323=CARTESIAN_POINT('Ctrl Pts',(6.38444823965614,29.3568592582976,5.80810639082025));
#324=CARTESIAN_POINT('Ctrl Pts',(7.93976866910778,28.9716710207552,6.29505511381133));
#325=CARTESIAN_POINT('Ctrl Pts',(10.8803392681179,28.0002829323192,7.54836511339324));
#326=CARTESIAN_POINT('Ctrl Pts',(12.2690138095552,27.4134213367799,8.31580730827134));
#327=CARTESIAN_POINT('Ctrl Pts',(14.8083690995623,26.1292283435734,10.0506799179026));
#328=CARTESIAN_POINT('Ctrl Pts',(15.9592690948785,25.432375476729,11.0181435979242));
#329=CARTESIAN_POINT('Ctrl Pts',(18.0143190580159,24.0226228324281,13.0731935610616));
#330=CARTESIAN_POINT('Ctrl Pts',(18.9897753331483,23.2533012684665,14.243576618351));
#331=CARTESIAN_POINT('Ctrl Pts',(20.7173818352776,21.7282690643034,16.7871506884166));
#332=CARTESIAN_POINT('Ctrl Pts',(21.4702242997991,20.9727765979933,18.1600022763071));
#333=CARTESIAN_POINT('Ctrl Pts',(22.7017838145872,19.633056716232,21.0561296677619));
#334=CARTESIAN_POINT('Ctrl Pts',(23.1816831088682,19.0494750379386,22.5814930216087));
#335=CARTESIAN_POINT('Ctrl Pts',(23.8308927387716,18.2307839763161,25.7325526025999));
#336=CARTESIAN_POINT('Ctrl Pts',(24.,18.,27.3594128774146));
#337=CARTESIAN_POINT('Ctrl Pts',(24.,18.,30.6405871225854));
#338=CARTESIAN_POINT('Ctrl Pts',(23.8308927387716,18.2307839763161,32.2674473974001));
#339=CARTESIAN_POINT('Ctrl Pts',(23.1816831088682,19.0494750379386,35.4185069783913));
#340=CARTESIAN_POINT('Ctrl Pts',(22.7017838145872,19.633056716232,36.9438703322381));
#341=CARTESIAN_POINT('Ctrl Pts',(21.4702242997991,20.9727765979933,39.8399977236929));
#342=CARTESIAN_POINT('Ctrl Pts',(20.7173818352776,21.7282690643034,41.2128493115834));
#343=CARTESIAN_POINT('Ctrl Pts',(18.9897753331483,23.2533012684665,43.756423381649));
#344=CARTESIAN_POINT('Ctrl Pts',(18.0143190580159,24.0226228324281,44.9268064389384));
#345=CARTESIAN_POINT('Ctrl Pts',(15.9592690948785,25.432375476729,46.9818564020758));
#346=CARTESIAN_POINT('Ctrl Pts',(14.8083690995623,26.1292283435734,47.9493200820974));
#347=CARTESIAN_POINT('Ctrl Pts',(12.2690138095552,27.4134213367799,49.6841926917287));
#348=CARTESIAN_POINT('Ctrl Pts',(10.8803392681179,28.0002829323192,50.4516348866068));
#349=CARTESIAN_POINT('Ctrl Pts',(7.93976866910778,28.9716710207552,51.7049448861887));
#350=CARTESIAN_POINT('Ctrl Pts',(6.38444823965614,29.3568592582976,52.1918936091798));
#351=CARTESIAN_POINT('Ctrl Pts',(3.20939624496865,29.871159010127,52.8395655219682));
#352=CARTESIAN_POINT('Ctrl Pts',(1.58956197925117,30.,53.));
#353=CARTESIAN_POINT('Ctrl Pts',(1.66533453693773E-15,30.,53.));
#354=CARTESIAN_POINT('Origin',(0.,30.,29.));
#355=CARTESIAN_POINT('Origin',(0.,30.,29.));
#356=CARTESIAN_POINT('Origin',(0.,0.,0.));
#357=CARTESIAN_POINT('',(-30.,3.67394039744206E-15,5.));
#358=CARTESIAN_POINT('Origin',(0.,0.,5.));
#359=CARTESIAN_POINT('',(-30.,-3.67394039744206E-15,53.));
#360=CARTESIAN_POINT('',(-30.,0.,0.));
#361=CARTESIAN_POINT('Origin',(0.,0.,53.));
#362=CARTESIAN_POINT('Origin',(0.,0.,0.));
#363=CARTESIAN_POINT('',(30.,0.,53.));
#364=CARTESIAN_POINT('Origin',(0.,0.,53.));
#365=CARTESIAN_POINT('',(30.,0.,5.));
#366=CARTESIAN_POINT('',(30.,0.,0.));
#367=CARTESIAN_POINT('Origin',(0.,0.,5.));
#368=CARTESIAN_POINT('Origin',(0.,0.,29.));
#369=CARTESIAN_POINT('',(25.,0.,0.));
#370=CARTESIAN_POINT('',(27.5,0.,2.5));
#371=CARTESIAN_POINT('',(25.,0.,58.));
#372=CARTESIAN_POINT('',(27.5,0.,55.5));
#373=CARTESIAN_POINT('',(6.75,0.,58.));
#374=CARTESIAN_POINT('',(0.,0.,58.));
#375=CARTESIAN_POINT('',(6.75,0.,0.));
#376=CARTESIAN_POINT('',(6.75,0.,0.));
#377=CARTESIAN_POINT('',(0.,0.,0.));
#378=CARTESIAN_POINT('Origin',(0.,0.,29.));
#379=CARTESIAN_POINT('',(-25.,-3.06161699786838E-15,0.));
#380=CARTESIAN_POINT('',(-27.5,0.,2.5));
#381=CARTESIAN_POINT('',(-6.75,-8.26636589424463E-16,0.));
#382=CARTESIAN_POINT('',(0.,0.,0.));
#383=CARTESIAN_POINT('',(-6.75,-8.26636589424463E-16,58.));
#384=CARTESIAN_POINT('',(-6.75,0.,0.));
#385=CARTESIAN_POINT('',(-25.,3.06161699786838E-15,58.));
#386=CARTESIAN_POINT('',(0.,0.,58.));
#387=CARTESIAN_POINT('',(-27.5,0.,55.5));
#388=CARTESIAN_POINT('Origin',(0.,0.,58.));
#389=CARTESIAN_POINT('Origin',(0.,0.,58.));
#390=CARTESIAN_POINT('Origin',(0.,0.,58.));
#391=CARTESIAN_POINT('Origin',(0.,0.,55.5));
#392=CARTESIAN_POINT('Origin',(0.,0.,2.5));
#393=CARTESIAN_POINT('Origin',(0.,0.,0.));
#394=CARTESIAN_POINT('Origin',(0.,0.,0.));
#395=CARTESIAN_POINT('Origin',(0.,0.,0.));
#396=CARTESIAN_POINT('Origin',(0.,0.,0.));
#397=UNCERTAINTY_MEASURE_WITH_UNIT(LENGTH_MEASURE(0.01),#401,
'DISTANCE_ACCURACY_VALUE',
'Maximum model space distance between geometric entities at asserted c
onnectivities');
#398=UNCERTAINTY_MEASURE_WITH_UNIT(LENGTH_MEASURE(0.01),#401,
'DISTANCE_ACCURACY_VALUE',
'Maximum model space distance between geometric entities at asserted c
onnectivities');
#399=(
GEOMETRIC_REPRESENTATION_CONTEXT(3)
GLOBAL_UNCERTAINTY_ASSIGNED_CONTEXT((#397))
GLOBAL_UNIT_ASSIGNED_CONTEXT((#401,#403,#404))
REPRESENTATION_CONTEXT('','3D')
);
#400=(
GEOMETRIC_REPRESENTATION_CONTEXT(3)
GLOBAL_UNCERTAINTY_ASSIGNED_CONTEXT((#398))
GLOBAL_UNIT_ASSIGNED_CONTEXT((#401,#403,#404))
REPRESENTATION_CONTEXT('','3D')
);
#401=(
LENGTH_UNIT()
NAMED_UNIT(*)
SI_UNIT(.MILLI.,.METRE.)
);
#402=(
LENGTH_UNIT()
NAMED_UNIT(*)
SI_UNIT($,.METRE.)
);
#403=(
NAMED_UNIT(*)
PLANE_ANGLE_UNIT()
SI_UNIT($,.RADIAN.)
);
#404=(
NAMED_UNIT(*)
SI_UNIT($,.STERADIAN.)
SOLID_ANGLE_UNIT()
);
#405=SHAPE_DEFINITION_REPRESENTATION(#406,#407);
#406=PRODUCT_DEFINITION_SHAPE('',$,#409);
#407=SHAPE_REPRESENTATION('',(#198),#399);
#408=PRODUCT_DEFINITION_CONTEXT('part definition',#413,'design');
#409=PRODUCT_DEFINITION('3D print hub','3D print hub v1',#410,#408);
#410=PRODUCT_DEFINITION_FORMATION('',$,#415);
#411=PRODUCT_RELATED_PRODUCT_CATEGORY('3D print hub v1',
'3D print hub v1',(#415));
#412=APPLICATION_PROTOCOL_DEFINITION('international standard',
'automotive_design',2009,#413);
#413=APPLICATION_CONTEXT(
'Core Data for Automotive Mechanical Design Process');
#414=PRODUCT_CONTEXT('part definition',#413,'mechanical');
#415=PRODUCT('3D print hub','3D print hub v1',$,(#414));
#416=PRESENTATION_STYLE_ASSIGNMENT((#418));
#417=PRESENTATION_STYLE_ASSIGNMENT((#419));
#418=SURFACE_STYLE_USAGE(.BOTH.,#420);
#419=SURFACE_STYLE_USAGE(.BOTH.,#421);
#420=SURFACE_SIDE_STYLE('',(#422));
#421=SURFACE_SIDE_STYLE('',(#423));
#422=SURFACE_STYLE_FILL_AREA(#424);
#423=SURFACE_STYLE_FILL_AREA(#425);
#424=FILL_AREA_STYLE('Steel - Satin',(#426));
#425=FILL_AREA_STYLE('Opaque(160,160,160)',(#427));
#426=FILL_AREA_STYLE_COLOUR('Steel - Satin',#428);
#427=FILL_AREA_STYLE_COLOUR('Opaque(160,160,160)',#429);
#428=COLOUR_RGB('Steel - Satin',0.627450980392157,0.627450980392157,0.627450980392157);
#429=COLOUR_RGB('Opaque(160,160,160)',0.627450980392157,0.627450980392157,
0.627450980392157);
ENDSEC;
END-ISO-10303-21;
